<mxfile host="app.diagrams.net" modified="2023-11-26T06:30:46.442Z" agent="Mozilla/5.0 (Windows NT 10.0; Win64; x64) AppleWebKit/537.36 (KHTML, like Gecko) Chrome/119.0.0.0 Safari/537.36" etag="TsXj8_NkNV38oWITsMFE" version="22.1.4" type="github">
  <diagram name="Activity" id="moOA_NGzsPrsbmGXDFFL">
    <mxGraphModel dx="2049" dy="665" grid="1" gridSize="10" guides="1" tooltips="1" connect="1" arrows="1" fold="1" page="1" pageScale="1" pageWidth="827" pageHeight="1169" math="0" shadow="0">
      <root>
        <mxCell id="0" />
        <mxCell id="1" parent="0" />
        <mxCell id="ZiedQEf7F30APy9FvFfM-1" value="使用者" style="swimlane;whiteSpace=wrap;html=1;startSize=23;" vertex="1" parent="1">
          <mxGeometry x="80" y="440" width="320" height="600" as="geometry">
            <mxRectangle x="160" y="440" width="80" height="30" as="alternateBounds" />
          </mxGeometry>
        </mxCell>
        <mxCell id="ZiedQEf7F30APy9FvFfM-6" style="edgeStyle=orthogonalEdgeStyle;rounded=0;orthogonalLoop=1;jettySize=auto;html=1;exitX=0.5;exitY=1;exitDx=0;exitDy=0;entryX=0.5;entryY=0;entryDx=0;entryDy=0;" edge="1" parent="ZiedQEf7F30APy9FvFfM-1" source="ZiedQEf7F30APy9FvFfM-3" target="ZiedQEf7F30APy9FvFfM-5">
          <mxGeometry relative="1" as="geometry" />
        </mxCell>
        <mxCell id="ZiedQEf7F30APy9FvFfM-3" value="" style="ellipse;html=1;shape=startState;fillColor=#000000;strokeColor=none;" vertex="1" parent="ZiedQEf7F30APy9FvFfM-1">
          <mxGeometry x="145" y="40" width="30" height="30" as="geometry" />
        </mxCell>
        <mxCell id="ZiedQEf7F30APy9FvFfM-5" value="選擇日期" style="rounded=1;whiteSpace=wrap;html=1;" vertex="1" parent="ZiedQEf7F30APy9FvFfM-1">
          <mxGeometry x="117.5" y="90" width="85" height="40" as="geometry" />
        </mxCell>
        <mxCell id="ZiedQEf7F30APy9FvFfM-10" value="點選新增任務" style="rounded=1;whiteSpace=wrap;html=1;" vertex="1" parent="ZiedQEf7F30APy9FvFfM-1">
          <mxGeometry x="80" y="220" width="85" height="40" as="geometry" />
        </mxCell>
        <mxCell id="ZiedQEf7F30APy9FvFfM-13" value="點選現有任務" style="rounded=1;whiteSpace=wrap;html=1;" vertex="1" parent="ZiedQEf7F30APy9FvFfM-1">
          <mxGeometry x="175" y="220" width="85" height="40" as="geometry" />
        </mxCell>
        <mxCell id="ZiedQEf7F30APy9FvFfM-31" value="" style="line;strokeWidth=3;fillColor=none;align=left;verticalAlign=middle;spacingTop=-1;spacingLeft=3;spacingRight=3;rotatable=0;labelPosition=right;points=[];portConstraint=eastwest;strokeColor=inherit;" vertex="1" parent="ZiedQEf7F30APy9FvFfM-1">
          <mxGeometry x="110" y="180" width="100" height="8" as="geometry" />
        </mxCell>
        <mxCell id="ZiedQEf7F30APy9FvFfM-9" value="點選編輯" style="rounded=1;whiteSpace=wrap;html=1;" vertex="1" parent="ZiedQEf7F30APy9FvFfM-1">
          <mxGeometry x="175" y="350" width="85" height="40" as="geometry" />
        </mxCell>
        <mxCell id="ZiedQEf7F30APy9FvFfM-40" value="" style="line;strokeWidth=3;fillColor=none;align=left;verticalAlign=middle;spacingTop=-1;spacingLeft=3;spacingRight=3;rotatable=0;labelPosition=right;points=[];portConstraint=eastwest;strokeColor=inherit;direction=south;" vertex="1" parent="ZiedQEf7F30APy9FvFfM-1">
          <mxGeometry x="300" y="280" width="8" height="70" as="geometry" />
        </mxCell>
        <mxCell id="ZiedQEf7F30APy9FvFfM-59" style="edgeStyle=orthogonalEdgeStyle;rounded=0;orthogonalLoop=1;jettySize=auto;html=1;exitX=0;exitY=0.5;exitDx=0;exitDy=0;entryX=1;entryY=0.5;entryDx=0;entryDy=0;" edge="1" parent="ZiedQEf7F30APy9FvFfM-1" source="ZiedQEf7F30APy9FvFfM-16" target="ZiedQEf7F30APy9FvFfM-44">
          <mxGeometry relative="1" as="geometry" />
        </mxCell>
        <mxCell id="ZiedQEf7F30APy9FvFfM-16" value="點選刪除" style="rounded=1;whiteSpace=wrap;html=1;" vertex="1" parent="ZiedQEf7F30APy9FvFfM-1">
          <mxGeometry x="175" y="280" width="85" height="40" as="geometry" />
        </mxCell>
        <mxCell id="ZiedQEf7F30APy9FvFfM-63" style="edgeStyle=orthogonalEdgeStyle;rounded=0;orthogonalLoop=1;jettySize=auto;html=1;exitX=0;exitY=0.5;exitDx=0;exitDy=0;entryX=1;entryY=0.5;entryDx=0;entryDy=0;" edge="1" parent="ZiedQEf7F30APy9FvFfM-1" source="ZiedQEf7F30APy9FvFfM-50" target="ZiedQEf7F30APy9FvFfM-15">
          <mxGeometry relative="1" as="geometry" />
        </mxCell>
        <mxCell id="ZiedQEf7F30APy9FvFfM-50" value="輸入 / 修改內容" style="rounded=1;whiteSpace=wrap;html=1;" vertex="1" parent="ZiedQEf7F30APy9FvFfM-1">
          <mxGeometry x="175" y="430" width="85" height="40" as="geometry" />
        </mxCell>
        <mxCell id="ZiedQEf7F30APy9FvFfM-15" value="儲存" style="rounded=1;whiteSpace=wrap;html=1;" vertex="1" parent="ZiedQEf7F30APy9FvFfM-1">
          <mxGeometry x="17.5" y="430" width="85" height="40" as="geometry" />
        </mxCell>
        <mxCell id="ZiedQEf7F30APy9FvFfM-55" value="" style="endArrow=classic;html=1;rounded=0;exitX=0.232;exitY=0.637;exitDx=0;exitDy=0;exitPerimeter=0;entryX=0.5;entryY=0;entryDx=0;entryDy=0;edgeStyle=orthogonalEdgeStyle;" edge="1" parent="ZiedQEf7F30APy9FvFfM-1" source="ZiedQEf7F30APy9FvFfM-31" target="ZiedQEf7F30APy9FvFfM-10">
          <mxGeometry width="50" height="50" relative="1" as="geometry">
            <mxPoint x="210" y="250" as="sourcePoint" />
            <mxPoint x="260" y="200" as="targetPoint" />
            <Array as="points">
              <mxPoint x="133" y="204" />
              <mxPoint x="123" y="204" />
              <mxPoint x="123" y="220" />
            </Array>
          </mxGeometry>
        </mxCell>
        <mxCell id="ZiedQEf7F30APy9FvFfM-56" value="" style="endArrow=classic;html=1;rounded=0;exitX=0.686;exitY=0.367;exitDx=0;exitDy=0;exitPerimeter=0;entryX=0.5;entryY=0;entryDx=0;entryDy=0;edgeStyle=orthogonalEdgeStyle;" edge="1" parent="ZiedQEf7F30APy9FvFfM-1" source="ZiedQEf7F30APy9FvFfM-31" target="ZiedQEf7F30APy9FvFfM-13">
          <mxGeometry width="50" height="50" relative="1" as="geometry">
            <mxPoint x="210" y="220" as="sourcePoint" />
            <mxPoint x="260" y="170" as="targetPoint" />
            <Array as="points">
              <mxPoint x="179" y="186" />
              <mxPoint x="179" y="204" />
              <mxPoint x="217" y="204" />
            </Array>
          </mxGeometry>
        </mxCell>
        <mxCell id="ZiedQEf7F30APy9FvFfM-57" value="" style="endArrow=classic;html=1;rounded=0;entryX=1;entryY=0.5;entryDx=0;entryDy=0;" edge="1" parent="ZiedQEf7F30APy9FvFfM-1" target="ZiedQEf7F30APy9FvFfM-16">
          <mxGeometry width="50" height="50" relative="1" as="geometry">
            <mxPoint x="304" y="300" as="sourcePoint" />
            <mxPoint x="254" y="300" as="targetPoint" />
          </mxGeometry>
        </mxCell>
        <mxCell id="ZiedQEf7F30APy9FvFfM-58" value="" style="endArrow=classic;html=1;rounded=0;entryX=1;entryY=0.25;entryDx=0;entryDy=0;exitX=0.746;exitY=0.507;exitDx=0;exitDy=0;exitPerimeter=0;edgeStyle=orthogonalEdgeStyle;" edge="1" parent="ZiedQEf7F30APy9FvFfM-1" source="ZiedQEf7F30APy9FvFfM-40" target="ZiedQEf7F30APy9FvFfM-9">
          <mxGeometry width="50" height="50" relative="1" as="geometry">
            <mxPoint x="190" y="370" as="sourcePoint" />
            <mxPoint x="240" y="320" as="targetPoint" />
          </mxGeometry>
        </mxCell>
        <mxCell id="ZiedQEf7F30APy9FvFfM-44" value="確認刪除" style="rhombus;whiteSpace=wrap;html=1;" vertex="1" parent="ZiedQEf7F30APy9FvFfM-1">
          <mxGeometry x="20" y="280" width="80" height="40" as="geometry" />
        </mxCell>
        <mxCell id="ZiedQEf7F30APy9FvFfM-2" value="系統前端" style="swimlane;whiteSpace=wrap;html=1;" vertex="1" parent="1">
          <mxGeometry x="400" y="440" width="240" height="600" as="geometry" />
        </mxCell>
        <mxCell id="ZiedQEf7F30APy9FvFfM-7" value="下方跳出當日所有任務標題" style="rounded=1;whiteSpace=wrap;html=1;" vertex="1" parent="ZiedQEf7F30APy9FvFfM-2">
          <mxGeometry x="77.5" y="90" width="85" height="40" as="geometry" />
        </mxCell>
        <mxCell id="ZiedQEf7F30APy9FvFfM-33" value="下方延展任務內容" style="rounded=1;whiteSpace=wrap;html=1;" vertex="1" parent="ZiedQEf7F30APy9FvFfM-2">
          <mxGeometry x="77.5" y="220" width="85" height="40" as="geometry" />
        </mxCell>
        <mxCell id="ZiedQEf7F30APy9FvFfM-11" value="進入新增修改頁面" style="rounded=1;whiteSpace=wrap;html=1;" vertex="1" parent="ZiedQEf7F30APy9FvFfM-2">
          <mxGeometry x="77.5" y="370" width="85" height="40" as="geometry" />
        </mxCell>
        <mxCell id="ZiedQEf7F30APy9FvFfM-8" style="edgeStyle=orthogonalEdgeStyle;rounded=0;orthogonalLoop=1;jettySize=auto;html=1;exitX=1;exitY=0.5;exitDx=0;exitDy=0;entryX=0;entryY=0.5;entryDx=0;entryDy=0;" edge="1" parent="1" source="ZiedQEf7F30APy9FvFfM-5" target="ZiedQEf7F30APy9FvFfM-7">
          <mxGeometry relative="1" as="geometry" />
        </mxCell>
        <mxCell id="ZiedQEf7F30APy9FvFfM-19" value="DB" style="swimlane;whiteSpace=wrap;html=1;" vertex="1" parent="1">
          <mxGeometry x="-160" y="440" width="240" height="600" as="geometry" />
        </mxCell>
        <mxCell id="ZiedQEf7F30APy9FvFfM-22" value="移除任務 (直接移除 DB 內容)" style="rounded=1;whiteSpace=wrap;html=1;" vertex="1" parent="ZiedQEf7F30APy9FvFfM-19">
          <mxGeometry x="60" y="280" width="85" height="40" as="geometry" />
        </mxCell>
        <mxCell id="ZiedQEf7F30APy9FvFfM-29" value="Insert / Update至 DB" style="rounded=1;whiteSpace=wrap;html=1;" vertex="1" parent="ZiedQEf7F30APy9FvFfM-19">
          <mxGeometry x="120" y="430" width="85" height="40" as="geometry" />
        </mxCell>
        <mxCell id="ZiedQEf7F30APy9FvFfM-65" value="" style="line;strokeWidth=3;fillColor=none;align=left;verticalAlign=middle;spacingTop=-1;spacingLeft=3;spacingRight=3;rotatable=0;labelPosition=right;points=[];portConstraint=eastwest;strokeColor=inherit;" vertex="1" parent="ZiedQEf7F30APy9FvFfM-19">
          <mxGeometry x="70" y="510" width="100" height="8" as="geometry" />
        </mxCell>
        <mxCell id="ZiedQEf7F30APy9FvFfM-66" style="edgeStyle=orthogonalEdgeStyle;rounded=0;orthogonalLoop=1;jettySize=auto;html=1;exitX=0.25;exitY=1;exitDx=0;exitDy=0;entryX=0.11;entryY=0;entryDx=0;entryDy=0;entryPerimeter=0;" edge="1" parent="ZiedQEf7F30APy9FvFfM-19" source="ZiedQEf7F30APy9FvFfM-22" target="ZiedQEf7F30APy9FvFfM-65">
          <mxGeometry relative="1" as="geometry" />
        </mxCell>
        <mxCell id="ZiedQEf7F30APy9FvFfM-67" style="edgeStyle=orthogonalEdgeStyle;rounded=0;orthogonalLoop=1;jettySize=auto;html=1;exitX=0.5;exitY=1;exitDx=0;exitDy=0;entryX=0.923;entryY=0.083;entryDx=0;entryDy=0;entryPerimeter=0;" edge="1" parent="ZiedQEf7F30APy9FvFfM-19" source="ZiedQEf7F30APy9FvFfM-29" target="ZiedQEf7F30APy9FvFfM-65">
          <mxGeometry relative="1" as="geometry" />
        </mxCell>
        <mxCell id="ZiedQEf7F30APy9FvFfM-70" value="" style="ellipse;html=1;shape=endState;fillColor=#000000;strokeColor=default;" vertex="1" parent="ZiedQEf7F30APy9FvFfM-19">
          <mxGeometry x="105" y="550" width="30" height="30" as="geometry" />
        </mxCell>
        <mxCell id="ZiedQEf7F30APy9FvFfM-71" value="" style="endArrow=classic;html=1;rounded=0;entryX=0.5;entryY=0;entryDx=0;entryDy=0;" edge="1" parent="ZiedQEf7F30APy9FvFfM-19" target="ZiedQEf7F30APy9FvFfM-70">
          <mxGeometry width="50" height="50" relative="1" as="geometry">
            <mxPoint x="120" y="515" as="sourcePoint" />
            <mxPoint x="120" y="545" as="targetPoint" />
          </mxGeometry>
        </mxCell>
        <mxCell id="ZiedQEf7F30APy9FvFfM-32" style="edgeStyle=orthogonalEdgeStyle;rounded=0;orthogonalLoop=1;jettySize=auto;html=1;exitX=0.5;exitY=1;exitDx=0;exitDy=0;entryX=0.5;entryY=0;entryDx=0;entryDy=0;entryPerimeter=0;" edge="1" parent="1" source="ZiedQEf7F30APy9FvFfM-7" target="ZiedQEf7F30APy9FvFfM-31">
          <mxGeometry relative="1" as="geometry" />
        </mxCell>
        <mxCell id="ZiedQEf7F30APy9FvFfM-34" style="edgeStyle=orthogonalEdgeStyle;rounded=0;orthogonalLoop=1;jettySize=auto;html=1;exitX=1;exitY=0.5;exitDx=0;exitDy=0;entryX=0;entryY=0.5;entryDx=0;entryDy=0;" edge="1" parent="1" source="ZiedQEf7F30APy9FvFfM-13" target="ZiedQEf7F30APy9FvFfM-33">
          <mxGeometry relative="1" as="geometry" />
        </mxCell>
        <mxCell id="ZiedQEf7F30APy9FvFfM-41" style="edgeStyle=orthogonalEdgeStyle;rounded=0;orthogonalLoop=1;jettySize=auto;html=1;exitX=0.5;exitY=1;exitDx=0;exitDy=0;entryX=0.552;entryY=0.5;entryDx=0;entryDy=0;entryPerimeter=0;" edge="1" parent="1" source="ZiedQEf7F30APy9FvFfM-33" target="ZiedQEf7F30APy9FvFfM-40">
          <mxGeometry relative="1" as="geometry" />
        </mxCell>
        <mxCell id="ZiedQEf7F30APy9FvFfM-48" style="edgeStyle=orthogonalEdgeStyle;rounded=0;orthogonalLoop=1;jettySize=auto;html=1;exitX=1;exitY=0.75;exitDx=0;exitDy=0;entryX=0;entryY=0.25;entryDx=0;entryDy=0;" edge="1" parent="1" source="ZiedQEf7F30APy9FvFfM-9" target="ZiedQEf7F30APy9FvFfM-11">
          <mxGeometry relative="1" as="geometry" />
        </mxCell>
        <mxCell id="ZiedQEf7F30APy9FvFfM-51" style="edgeStyle=orthogonalEdgeStyle;rounded=0;orthogonalLoop=1;jettySize=auto;html=1;exitX=0.5;exitY=1;exitDx=0;exitDy=0;entryX=0;entryY=0.75;entryDx=0;entryDy=0;" edge="1" parent="1" source="ZiedQEf7F30APy9FvFfM-10" target="ZiedQEf7F30APy9FvFfM-11">
          <mxGeometry relative="1" as="geometry" />
        </mxCell>
        <mxCell id="ZiedQEf7F30APy9FvFfM-60" style="edgeStyle=orthogonalEdgeStyle;rounded=0;orthogonalLoop=1;jettySize=auto;html=1;exitX=0;exitY=0.5;exitDx=0;exitDy=0;entryX=1;entryY=0.5;entryDx=0;entryDy=0;" edge="1" parent="1" source="ZiedQEf7F30APy9FvFfM-44" target="ZiedQEf7F30APy9FvFfM-22">
          <mxGeometry relative="1" as="geometry" />
        </mxCell>
        <mxCell id="ZiedQEf7F30APy9FvFfM-61" value="是" style="edgeLabel;html=1;align=center;verticalAlign=middle;resizable=0;points=[];" vertex="1" connectable="0" parent="ZiedQEf7F30APy9FvFfM-60">
          <mxGeometry x="0.1322" y="-1" relative="1" as="geometry">
            <mxPoint as="offset" />
          </mxGeometry>
        </mxCell>
        <mxCell id="ZiedQEf7F30APy9FvFfM-62" style="edgeStyle=orthogonalEdgeStyle;rounded=0;orthogonalLoop=1;jettySize=auto;html=1;exitX=0.5;exitY=1;exitDx=0;exitDy=0;entryX=1;entryY=0.5;entryDx=0;entryDy=0;" edge="1" parent="1" source="ZiedQEf7F30APy9FvFfM-11" target="ZiedQEf7F30APy9FvFfM-50">
          <mxGeometry relative="1" as="geometry" />
        </mxCell>
        <mxCell id="ZiedQEf7F30APy9FvFfM-64" style="edgeStyle=orthogonalEdgeStyle;rounded=0;orthogonalLoop=1;jettySize=auto;html=1;exitX=0;exitY=0.5;exitDx=0;exitDy=0;entryX=1;entryY=0.5;entryDx=0;entryDy=0;" edge="1" parent="1" source="ZiedQEf7F30APy9FvFfM-15" target="ZiedQEf7F30APy9FvFfM-29">
          <mxGeometry relative="1" as="geometry" />
        </mxCell>
        <mxCell id="ZiedQEf7F30APy9FvFfM-68" style="edgeStyle=orthogonalEdgeStyle;rounded=0;orthogonalLoop=1;jettySize=auto;html=1;exitX=0.5;exitY=1;exitDx=0;exitDy=0;entryX=0.3;entryY=0;entryDx=0;entryDy=0;entryPerimeter=0;" edge="1" parent="1" source="ZiedQEf7F30APy9FvFfM-44" target="ZiedQEf7F30APy9FvFfM-65">
          <mxGeometry relative="1" as="geometry">
            <Array as="points">
              <mxPoint x="140" y="780" />
              <mxPoint x="-60" y="780" />
            </Array>
          </mxGeometry>
        </mxCell>
        <mxCell id="ZiedQEf7F30APy9FvFfM-69" value="否" style="edgeLabel;html=1;align=center;verticalAlign=middle;resizable=0;points=[];" vertex="1" connectable="0" parent="ZiedQEf7F30APy9FvFfM-68">
          <mxGeometry x="-0.3651" y="1" relative="1" as="geometry">
            <mxPoint as="offset" />
          </mxGeometry>
        </mxCell>
      </root>
    </mxGraphModel>
  </diagram>
</mxfile>
